<?xml version="1.0" encoding="UTF-8"?>
<svg id="Layer_1" data-name="Layer 1" xmlns="http://www.w3.org/2000/svg" viewBox="0 0 360 360">
  <path d="M63.53,305.9l2.08-18.46c12.26,4.65,15.22,5.48,21.35,5.48s11.5-2.26,11.5-8.46c0-2.98-1.75-5.24-7.45-7.86l-9.75-4.64c-10.19-4.65-16.76-11.08-16.76-22.75,0-18.1,15.44-25.13,30.66-25.13,7.23,0,14.13,1.43,20.92,3.93l-1.97,17.51c-12.05-4.53-14.89-5.36-19.93-5.36-5.69,0-10.29,2.14-10.29,6.79,0,2.98,1.53,4.88,6.35,7.15l10.29,4.76c11.06,5,18.18,11.67,18.18,23.82,0,19.77-16.65,26.92-32.85,26.92-7.12,0-14.56-1.07-22.34-3.69Z" style="fill: #0074ec;"/>
  <path d="M230.41,268.62c0-28.83,17.85-44.55,39.09-44.55,9.86,0,17.63,2.62,24.75,9.65l-4.49,14.65-6.46-3.22c-5.26-2.5-9.53-4.05-13.58-4.05-12.7,0-18.51,12.15-18.51,25.73,0,18.46,9.97,25.97,22.89,25.97,5.26,0,11.61-1.19,17.74-3.57l2.63,15.13c-5.69,2.98-14.13,5.24-22.78,5.24-23.22,0-41.29-10.6-41.29-40.97Z" style="fill: #0074ec;"/>
  <g>
    <g>
      <path d="M184.51,329.94l-.38-.11c-10.91-3.17-21.73-3.83-28.88-3.83-6.63,0-11.02.56-11.06.57l-3.13.41.02-3.16,1.58-274.11,2.5-.22c16.83-1.47,39.17-18.68,39.4-18.85l.75-.58h9.95s0,2.76,0,2.76c0,17.62,9.79,23.48,10.21,23.72l1.41.79-.02,1.61v266.96l-2.64.11c-5.95.24-8.35,1.11-9.22,1.56l.62,2.38h-11.1Z" style="fill: #fff;"/>
      <path d="M192.49,32.82c0,19.64,11.61,26.12,11.61,26.12v264.31c-12.95.52-12.05,3.94-12.05,3.94h-7.14c-10.99-3.19-21.86-3.94-29.65-3.94-6.93,0-11.42.59-11.42.59l1.56-271.6c17.86-1.56,40.85-19.42,40.85-19.42h6.25M198.01,27.3h-13.65l-1.49,1.16c-.22.17-21.94,16.88-37.95,18.28l-5,.44-.03,5.02-1.56,271.6-.04,6.32,6.27-.83s4.28-.55,10.7-.55c6.97,0,17.51.65,28.11,3.72l.75.22h15.06l-.87-3.32c1.24-.25,3.15-.51,6.01-.63l5.29-.21V55.57l-2.8-1.44c-.74-.46-8.81-5.88-8.81-21.32v-5.51h0Z" style="fill: #0074ec;"/>
    </g>
    <rect x="192.07" y="32.82" width=".85" height="142.03" style="fill: #0074ec;"/>
    <rect x="185.82" y="32.82" width=".85" height="54.69" style="fill: #0074ec;"/>
    <polygon points="161.47 101.34 161.47 105.14 172.18 100 172.18 96.07 161.47 101.34" style="fill: #0074ec;"/>
    <rect x="172.28" y="69.54" width="1.27" height="5.1" transform="translate(3.17 151.35) rotate(-47.66)" style="fill: #0074ec;"/>
    <rect x="164.71" y="73.8" width="1.27" height="5.11" style="fill: #0074ec;"/>
    <rect x="156.85" y="76.75" width="5.39" height="1.27" transform="translate(36.8 205.35) rotate(-72.07)" style="fill: #0074ec;"/>
    <rect x="175.47" y="63.71" width="4.94" height="1.27" style="fill: #0074ec;"/>
    <rect x="175.9" y="57.2" width="6.18" height="1.27" transform="translate(-8.42 73.97) rotate(-22.83)" style="fill: #0074ec;"/>
    <rect x="174.86" y="51.8" width="5.03" height="1.27" transform="translate(15.95 142.72) rotate(-45.69)" style="fill: #0074ec;"/>
    <rect x="169.94" y="49.89" width="4.91" height="1.27" transform="translate(88.96 209.63) rotate(-78.66)" style="fill: #0074ec;"/>
    <rect x="165.29" y="49.28" width="1.27" height="5.19" style="fill: #0074ec;"/>
    <rect x="157.45" y="53.45" width="1.27" height="4.68" transform="translate(9.71 133.82) rotate(-47.18)" style="fill: #0074ec;"/>
    <rect x="150.86" y="63.12" width="4.94" height="1.27" style="fill: #0074ec;"/>
    <rect x="149.64" y="69.53" width="5.29" height="1.27" transform="translate(-15.33 65.99) rotate(-23.31)" style="fill: #0074ec;"/>
    <rect x="150.92" y="75.34" width="5.57" height="1.27" transform="translate(-11.87 120.51) rotate(-41.36)" style="fill: #0074ec;"/>
    <rect x="159.65" y="51.51" width=".85" height="16.38" transform="translate(20.11 157.67) rotate(-55.44)" style="fill: #0074ec;"/>
    <rect x="152.88" y="66.01" width="16.4" height=".85" transform="translate(6.58 146.99) rotate(-49.95)" style="fill: #0074ec;"/>
  </g>
  <g>
    <polygon points="198 311.1 197.06 268.05 184.52 306.1 162.17 306.1 149.71 268.06 148.68 311.1 125.6 311.1 128.04 224.76 159.32 223.1 174.29 270.45 188.99 224.39 219.97 224.39 222.29 311.1 198 311.1" style="fill: #0074ec;"/>
    <path d="M157.52,225.7l16.75,53,16.54-51.81h26.72l2.19,81.71h-19.27l-1.2-55.15-16.54,50.15h-18.73l-16.43-50.15-1.31,55.15h-18.07l2.3-81.47,27.05-1.43M161.12,220.51l-3.86.2-27.05,1.43-4.6.24-.13,4.61-2.3,81.47-.15,5.14h28.09l.12-4.88.62-26.06,7.37,22.5,1.13,3.44h25.97l1.13-3.43,7.42-22.51.57,26.06.11,4.89h29.3l-.14-5.13-2.19-81.71-.13-4.87h-35.24l-1.11,3.48-11.75,36.82-12.01-37.99-1.17-3.69h0Z" style="fill: #fff;"/>
  </g>
  <g>
    <g>
      <path d="M129.9,219.83v-19.47c0-4.52-.8-4.52-1.9-4.52-.63,0-1.29.13-1.97.39v23.6h-15.85v-36.89c0-3.1-.14-5.02-.53-7.06l-1-5.36,13.09-3.41h4.29v17.51c2.46-1.16,4.91-1.75,7.33-1.75,4.92,0,11.02,1.92,12.18,11.05l.02.17.03.49c.07,1.11.17,2.63.17,4.95v20.3h-15.85Z" style="fill: #0074ec;"/>
      <path d="M123.53,169.61v19.4c3.19-2.3,6.51-3.64,9.83-3.64,6.19,0,9,3.32,9.7,8.87.06,1.08.19,2.68.19,5.3v17.8h-10.85v-16.97c0-3.64-.38-7.02-4.4-7.02-1.34,0-2.87.38-4.47,1.34v22.65h-10.85v-34.39c0-3-.13-5.17-.57-7.53l-.57-3.06,10.53-2.74h1.47M128.53,164.61h-7.11l-.62.16-10.53,2.74-4.51,1.18.86,4.58.57,3.06c.36,1.88.49,3.67.49,6.61v39.39h40.56v-22.8c0-2.41-.1-4.05-.17-5.13l-.03-.46v-.17s-.03-.16-.03-.16c-1.06-8.42-6.41-13.24-14.66-13.24-1.6,0-3.21.22-4.83.66v-16.42h0Z" style="fill: #fff;"/>
    </g>
    <g>
      <path d="M157.48,220.73c-7.14,0-11.94-4.34-11.94-10.79,0-4.14,2.12-9.55,12.23-11.82l4.81-1.04v-.03c0-1.82-.51-1.9-1.58-1.9-1.63,0-2.48.35-8.6,3.09l-3.55,1.59-2.13-13.02,1.93-.72c4.11-1.52,10.34-3.15,15.54-3.15,11.93,0,14.43,7.01,14.43,12.9,0,.65-.07,2.54-.18,5.58-.1,2.62-.21,5.77-.25,7.56l3.75.75-1.12,9.3-1.67.42c-2.5.62-4.44.9-6.28.9-3,0-5.32-.7-7.01-2.14-2.53,1.62-5.47,2.52-8.36,2.52ZM160.62,208.5c0,.28.07.53.69.53.4,0,.83-.05,1.26-.16v-1.15l-.26.06c-1.07.24-1.56.58-1.7.72Z" style="fill: #0074ec;"/>
      <path d="M164.18,185.43c7.08,0,11.93,2.49,11.93,10.4,0,1.47-.45,11.61-.45,14.1,0,.96.25,1.15.96,1.28l2.55.51-.64,5.3c-2.04.51-3.89.83-5.68.83-3.32,0-5.42-.96-6.64-3.06-2.49,2.23-5.74,3.45-8.74,3.45-5.93,0-9.44-3.45-9.44-8.29s3.45-7.85,10.27-9.38l6.76-1.47v-2.04c0-2.62-1.08-4.4-4.08-4.4-2.3,0-3.51.57-10.21,3.57l-1.28-7.78c4.47-1.66,10.27-3,14.67-3M161.31,211.53c1.34,0,2.68-.38,3.83-.96-.06-.57-.06-1.15-.06-1.79v-4.21l-3.32.77c-2.55.57-3.64,1.79-3.64,3.06,0,1.98,1.4,3.13,3.19,3.13M164.18,180.43c-5.53,0-12.11,1.71-16.42,3.31l-3.86,1.43.67,4.06,1.28,7.78.67,4.07c-2.87,3.02-3.48,6.46-3.48,8.84,0,7.83,5.94,13.29,14.44,13.29,2.82,0,5.67-.73,8.24-2.06,1.93,1.12,4.32,1.68,7.14,1.68,2.06,0,4.18-.3,6.89-.98l3.34-.83.41-3.42.64-5.3.55-4.59-3.96-.79c.05-1.66.13-3.66.19-5.43.12-3.15.18-4.97.18-5.67,0-5.75-2.2-15.4-16.93-15.4h0Z" style="fill: #fff;"/>
    </g>
    <g>
      <path d="M199.84,220.85c-12.63,0-20.17-6.87-20.17-18.39s8.03-19.6,19.54-19.6c5.26,0,9.07,1.34,12.73,4.5l1.23,1.06-3.4,11.24-5.41-2.46c-2.05-.9-3.37-1.31-4.26-1.31-3.67,0-4.07,3.96-4.07,5.67,0,4.5,1.96,6.69,5.99,6.69,2.45,0,4.26-.38,6.39-.99l2.7-.77,1.84,11.16-1.65.83c-2.79,1.39-7.5,2.37-11.45,2.37Z" style="fill: #0074ec;"/>
      <path d="M199.21,185.37c5.3,0,8.36,1.53,11.1,3.89l-2.11,6.95-2.81-1.28c-2.62-1.15-4.08-1.53-5.3-1.53-4.15,0-6.57,3.32-6.57,8.17,0,6.19,3.32,9.19,8.49,9.19,2.81,0,4.85-.45,7.08-1.08l1.09,6.57c-2.55,1.28-6.95,2.11-10.34,2.11-8.93,0-17.67-3.83-17.67-15.89,0-11.17,7.91-17.1,17.04-17.1M199.21,180.37c-12.97,0-22.04,9.09-22.04,22.1s8.69,20.89,22.67,20.89c3.64,0,8.93-.81,12.57-2.63l3.3-1.65-.6-3.64-1.09-6.57-.91-5.53-5.39,1.54c-1.98.57-3.54.89-5.71.89-1.97,0-3.49-.31-3.49-4.19,0-1.44.27-3.17,1.57-3.17.23,0,1,.11,3.26,1.1l2.78,1.26,5.2,2.36,1.66-5.47,2.11-6.95.94-3.12-2.47-2.12c-4.1-3.53-8.53-5.1-14.36-5.1h0Z" style="fill: #fff;"/>
    </g>
    <path d="M227.85,203.36l-1.34-.06v14.04h-10.85v-34.39c0-3-.19-5.1-.64-7.59l-.51-3,10.59-2.74h1.4v27.12l3.19-.19,6.76-10.08h11.36l-9.44,12.63,10.08,18.25h-11.8l-6.06-11.87c-.89-1.79-1.47-1.98-2.74-2.11Z" style="fill: #0074ec;"/>
  </g>
  <polygon points="200.83 198.91 212.3 198.91 209.09 209.68 200.83 206.46 200.83 198.91" style="fill: #fff;"/>
</svg>